<?xml version="1.0" standalone="no"?>
<!DOCTYPE svg PUBLIC "-//W3C//DTD SVG 20010904//EN"
 "http://www.w3.org/TR/2001/REC-SVG-20010904/DTD/svg10.dtd">
<svg version="1.0" xmlns="http://www.w3.org/2000/svg"
 width="1024.000000pt" height="1024.000000pt" viewBox="0 0 1024.000000 1024.000000"
 preserveAspectRatio="xMidYMid meet">
<metadata>
Created by potrace 1.11, written by Peter Selinger 2001-2013
</metadata>
<g transform="translate(0.000000,1024.000000) scale(0.100000,-0.100000)"
fill="#000000" stroke="none">
<path d="M1350 5281 l0 -2391 480 0 480 0 0 899 0 899 568 5 c875 9 1070 34
1357 177 293 145 483 338 624 630 56 116 90 225 117 375 22 125 26 487 6 610
-54 327 -168 565 -372 774 -195 201 -440 326 -716 365 -242 35 -381 39 -1461
43 l-1083 5 0 -2391z m1877 1569 c273 -16 375 -42 508 -131 88 -59 152 -130
199 -219 57 -109 70 -169 70 -315 0 -147 -13 -206 -71 -317 -68 -130 -194
-239 -337 -293 -146 -55 -391 -75 -913 -75 l-373 0 0 680 0 680 373 0 c204 0
450 -5 544 -10z"/>
<path d="M5800 5280 l0 -2390 480 0 480 0 0 1015 0 1015 995 0 995 0 0 405 0
405 -995 0 -995 0 0 565 0 565 1155 0 1155 0 0 405 0 405 -1635 0 -1635 0 0
-2390z"/>
</g>
</svg>
